<svg xmlns="http://www.w3.org/2000/svg">
  <defs>
    <symbol id="icon-sports" viewBox="0 0 16.933333 21.1666675">
    <svg xmlns:inkscape="http://www.inkscape.org/namespaces/inkscape" xmlns:sodipodi="http://sodipodi.sourceforge.net/DTD/sodipodi-0.dtd" xmlns="http://www.w3.org/2000/svg" xmlns:svg="http://www.w3.org/2000/svg" xmlns:rdf="http://www.w3.org/1999/02/22-rdf-syntax-ns#" xmlns:cc="http://creativecommons.org/ns#" xmlns:dc="http://purl.org/dc/elements/1.1/" viewBox="0 0 16.933333 21.1666675" version="1.1" x="0px" y="0px"><g><path style="color:#000000;paint-order:stroke fill markers;" d="m 13.594615,1.7150852 c -1.40249,0 -2.54496,1.143169 -2.54496,2.546149 0,1.402989 1.14247,2.546139 2.54496,2.546139 1.40248,0 2.54497,-1.14315 2.54497,-2.546139 0,-0.77315 -0.34707,-1.467297 -0.89328,-1.934804 a 0.26456759,0.26456759 0 0 0 -0.0119,-0.0101 c -0.44334,-0.374811 -1.01576,-0.601252 -1.63976,-0.601252 z m 0,0.529133 c 0.39385,0 0.76063,0.11213 1.07053,0.306163 -0.42224,0.465416 -0.66052,1.07437 -0.66069,1.710483 -7e-5,0.636272 0.23809,1.245567 0.66055,1.711303 -0.30987,0.193982 -0.6766,0.306063 -1.07039,0.306063 -0.39376,0 -0.76045,-0.112061 -1.07029,-0.306003 0.42248,-0.465736 0.66068,-1.075061 0.6606,-1.711333 -1.7e-4,-0.636033 -0.23842,-1.245027 -0.66079,-1.710543 0.30987,-0.194023 0.67663,-0.306133 1.07048,-0.306133 z m -7.7606068,0.113921 c -1.3367,0 -2.61892,0.531423 -3.56406,1.477129 -0.94514,0.945706 -1.47620003,2.228584 -1.47620003,3.565956 0,1.337361 0.53106003,2.6202288 1.47620003,3.5659348 0.94514,0.945696 2.22736,1.477149 3.56406,1.477149 0.38398,0 0.76613,-0.04411 1.13918,-0.130725 -0.18368,0.831795 -0.18953,1.705682 1.5e-4,2.563174 a 0.26459177,0.26459177 0 0 0 0.20111,0.201165 c 1.977037,0.437828 4.0416368,-0.163825 5.4745368,-1.595293 a 0.26459177,0.26459177 0 0 0 1.4e-4,-1.6e-4 c 1.43175,-1.432697 2.03452,-3.4979858 1.5984,-5.4764418 a 0.26459177,0.26459177 0 0 0 -0.20096,-0.201304 c -0.43272,-0.09613 -0.86968,-0.142509 -1.3033,-0.141239 h -10e-6 c -0.65037,0.002 -1.29314,0.111321 -1.90314,0.320027 0.0224,-0.193172 0.0341,-0.387555 0.0341,-0.582287 0,-1.337372 -0.53106,-2.62025 -1.4761998,-3.565956 -0.94514,-0.945706 -2.227357,-1.477129 -3.564047,-1.477129 z m 6.2820568,0.529863 c 0.34489,0.371 0.53958,0.860673 0.53972,1.373002 8e-5,0.512518 -0.19459,1.002431 -0.53959,1.373611 -0.3337,-0.359627 -0.5374,-0.841857 -0.5374,-1.373381 0,-0.531444 0.20365,-1.013615 0.53727,-1.373232 z m 2.95721,1.2e-4 c 0.33356,0.359597 0.53716,0.841718 0.53716,1.373112 0,0.531484 -0.20367,1.013674 -0.53733,1.373291 -0.34495,-0.37116 -0.53957,-0.861063 -0.53952,-1.373561 1.5e-4,-0.512379 0.19492,-1.001942 0.53969,-1.372842 z m -9.5038268,0.007 v 4.24129 h -1.61527 c -0.0584,-1.113692 -0.48444,-2.177109 -1.21116,-3.022898 0.77123,-0.726087 1.77203,-1.156453 2.82643,-1.21839 z m 0.52913,0 c 1.05142,0.06172 2.049517,0.489923 2.819857,1.212308 -0.72985,0.846699 -1.15781,1.912518 -1.21642,3.02898 h -1.603437 z m 3.185957,1.598683 c 0.62563,0.743431 0.9954998,1.670202 1.0525198,2.642605 H 8.2320752 c 0.057,-0.971533 0.42626,-1.898494 1.05246,-2.642605 z m -6.906977,0.007 c 0.62266,0.742983 0.98978,1.667183 1.04657,2.635575 h -2.09317 c 0.0568,-0.969343 0.42454,-1.893333 1.0466,-2.635573 z m -1.0466,3.164708 h 2.09317 c -0.0568,0.968402 -0.4239,1.892592 -1.04657,2.6355728 -0.62206,-0.7422308 -0.98978,-1.6662308 -1.0466,-2.6355728 z m 2.62322,0 h 1.61527 v 4.2413078 c -1.05441,-0.06192 -2.05521,-0.492323 -2.82644,-1.21842 0.72673,-0.8457888 1.15271,-1.9091968 1.21117,-3.0228878 z m 2.1444,0 h 1.603347 c 0.0378,0.719595 0.22931,1.423065 0.56195,2.062828 -0.50724,0.5914498 -0.88726,1.2698638 -1.127547,1.9936198 -0.3377,0.101917 -0.68593,0.163574 -1.03775,0.18426 z m 2.133327,0 h 2.1051898 c -0.0107,0.18298 -0.0325,0.365169 -0.0654,0.545558 -0.5904098,0.272834 -1.1392498,0.644194 -1.6206698,1.106709 -0.24321,-0.51885 -0.38549,-1.079602 -0.41909,-1.652267 z m 4.5126498,0.526733 h -10e-6 c 0.33928,-9.51e-4 0.68083,0.03011 1.0203,0.09443 0.32876,1.7511838 -0.22562,3.5561618 -1.48984,4.8213238 -1.26531,1.264053 -3.0694298,1.817382 -4.8191698,1.487233 -0.330007,-1.750824 0.22292,-3.556093 1.48604,-4.8221648 l 1.7e-4,-1.5e-4 c 9e-5,-9e-5 9e-5,-1.1e-4 1.4e-4,-1.6e-4 1.02075,-1.019516 2.3919798,-1.576547 3.8023698,-1.580528 z m -1.49938,1.415163 a 0.26456759,0.26456759 0 0 0 -0.0608,0.009 0.26456759,0.26456759 0 0 0 -0.11862,0.06842 0.26456759,0.26456759 0 0 0 -1.1e-4,0.3741608 l 0.2748,0.274964 -0.73126,0.731698 -0.27458,-0.274744 a 0.26456759,0.26456759 0 0 0 -0.25555,-0.06852 v -10e-6 a 0.26456759,0.26456759 0 0 0 -0.1186098,0.06842 0.26456759,0.26456759 0 0 0 -1.3e-4,0.374151 l 0.2748198,0.274979 -0.7312698,0.731688 -0.27457,-0.274735 a 0.26456759,0.26456759 0 0 0 -0.25553,-0.06852 v -10e-6 a 0.26456759,0.26456759 0 0 0 -0.11863,0.06842 0.26456759,0.26456759 0 0 0 -1.1e-4,0.374151 l 0.2748,0.274965 -0.27014,0.270293 a 0.26456759,0.26456759 0 0 0 1.1e-4,0.374161 0.26456759,0.26456759 0 0 0 0.37416,-1.1e-4 l 0.26991,-0.270073 0.27458,0.274734 a 0.26456759,0.26456759 0 0 0 0.3741498,1.3e-4 0.26456759,0.26456759 0 0 0 1.3e-4,-0.374161 l -0.2748198,-0.274974 0.7312698,-0.731698 0.27457,0.274734 a 0.26456759,0.26456759 0 0 0 0.37417,1.2e-4 0.26456759,0.26456759 0 0 0 1.1e-4,-0.374161 l -0.2748,-0.274954 0.73127,-0.731708 0.27458,0.274744 a 0.26456759,0.26456759 0 0 0 0.37415,1.1e-4 0.26456759,0.26456759 0 0 0 1.1e-4,-0.374151 l -0.2748,-0.274965 0.27013,-0.270293 a 0.26456759,0.26456759 0 0 0 -1.1e-4,-0.3741508 0.26456759,0.26456759 0 0 0 -0.11863,-0.06842 0.26456759,0.26456759 0 0 0 -0.25553,0.06852 l -0.2699,0.270062 -0.27459,-0.274744 a 0.26456759,0.26456759 0 0 0 -0.19474,-0.07742 z" fill="#000000" stroke-width="0.00917338" stroke-linecap="round" stroke-linejoin="round"/></g><text x="0" y="31.933334" fill="#000000" font-size="5px" font-weight="bold" font-family="'Helvetica Neue', Helvetica, Arial-Unicode, Arial, Sans-serif">Created by Larea</text><text x="0" y="36.933334" fill="#000000" font-size="5px" font-weight="bold" font-family="'Helvetica Neue', Helvetica, Arial-Unicode, Arial, Sans-serif">from the Noun Project</text></svg>
    </symbol>
  </defs>
</svg>